<?xml version="1.0" encoding="iso-8859-1"?>
<!-- Uploaded to: SVG Repo, www.svgrepo.com, Generator: SVG Repo Mixer Tools -->
<!DOCTYPE svg PUBLIC "-//W3C//DTD SVG 1.1//EN" "http://www.w3.org/Graphics/SVG/1.1/DTD/svg11.dtd">
<svg fill="#ffffff" height="800px" width="800px" version="1.1" id="Capa_1" xmlns="http://www.w3.org/2000/svg" xmlns:xlink="http://www.w3.org/1999/xlink" 
	 viewBox="0 0 423.388 423.388" xml:space="preserve">
<path d="M362.779,28.236C343.515,8.972,326.813,0,310.218,0c-17.101,0-33.854,9.127-54.322,29.596l-50.236,50.235
	c-7.792,7.792-0.961,14.622,2.71,18.293l20.855,20.855c0,0,2.459,1.957-0.632,5.378c-6.25,6.917-16.898,16.813-22.75,22.5
	c-2.282,2.218-6.132-1.122-6.132-1.122l-15.44-15.44c-2.825-2.826-6.592-4.382-10.606-4.382s-7.781,1.556-10.607,4.381
	l-51.582,51.582c-5.848,5.849-5.848,15.365,0,21.213l17.529,17.529c0,0,1.785,1.77-0.548,4.103
	c-14.631,14.631-58.525,58.525-58.525,58.525c-8.186,8.185-10.191,20.173-5.911,29.871l-19.022,19.022
	c-17.905,17.905-16.611,48.333,2.883,67.828l5.035,5.035c11.952,11.951,28.763,18.388,44.783,18.387
	c9.381,0,18.493-2.208,26.192-6.81l7.834-4.681h82.153c8.271,0,15-6.537,15-14.573c0-8.035-6.729-14.572-15-14.572h-28.843
	c-2.757,0-5-2.243-5-5c0,0,0-76.947,0-102.595c0-3.217,2.3-1.208,2.3-1.208l6.955,6.955c2.826,2.825,6.592,4.381,10.607,4.381
	c4.014,0,7.781-1.556,10.606-4.381l51.582-51.582c5.848-5.848,5.848-15.364-0.001-21.213l-18.372-18.372
	c0,0-3.204-3.964-1.073-6.083c7.236-7.196,16.325-16.363,22.75-22.5c3.453-3.298,6.58,0.57,6.58,0.57l22.054,22.054
	c2.979,2.979,5.552,5.552,9.368,5.552c0,0,0,0,0.001,0c3.383,0,5.941-2.125,7.792-3.976l50.234-50.235
	c19.829-19.828,29.229-36.776,29.586-53.335C391.369,64.873,382.4,47.857,362.779,28.236z M62.025,385.824
	c-11.697-11.697-12.991-29.436-2.883-39.543l19.59-19.59c2.718,0.948,5.62,1.443,8.613,1.443c7.283,0,14.167-2.874,19.385-8.091
	l35.691-35.691c0,0,2.253-2.245,2.253,1.255c0,23.036,0,92.146,0,92.146c0,2.757-2.243,5-5,5H110.83c-8.271,0-15,6.537-15,14.572
	c0,2.153,0.496,4.192,1.362,6.033c-10.684-0.169-22.243-4.609-30.133-12.499L62.025,385.824z"/>
</svg>